<?xml version="1.0" encoding="UTF-8"?>
<svg id="Layer_1" data-name="Layer 1" xmlns="http://www.w3.org/2000/svg" viewBox="0 0 2812.73 1122.57">
  <defs>
    <style>
      .cls-1 {
        fill: #70cce7;
      }

      .cls-2 {
        fill: #4a9db7;
      }

      .cls-3 {
        fill: #2d6273;
      }
    </style>
  </defs>
  <path class="cls-2" d="M1310.34,544.94c-101.76,0-173.2,62.88-173.2,157.19v271.02h-108.25v-271.02c0-176.7,115.82-281.85,281.45-281.85v124.67h0Z"/>
  <path class="cls-2" d="M1489.86,160.1v537.69l247.89-266.68h129.9l-231.65,246.08,237.07,295.95h-134.23l-174.28-220.06-74.69,82.39v137.67h-108.25V160.1h108.25Z"/>
  <path class="cls-2" d="M1944.32,160.1h108.25v813.05h-108.25V160.1Z"/>
  <path class="cls-2" d="M2402.03,873.41c57.37,0,103.92-24.93,133.14-65.04l73.61,73.72c-51.96,56.37-125.57,91.06-206.75,91.06-154.8,0-278.2-126.83-278.2-281.86s123.4-281.85,278.2-281.85,274.95,126.83,274.95,281.85c0,10.84,0,17.35-1.08,28.19-64.95-1.08-122.32-1.08-187.27-1.08-85.52,0-171.04,0-256.55,1.08,11.91,86.72,77.94,153.94,169.95,153.94h0ZM2238.57,630.58h323.66c-20.57-71.55-79.02-115.99-160.21-115.99s-141.81,44.45-163.45,115.99Z"/>
  <path class="cls-3" d="M813.55,973.23c-62.7-52.44-106.05-101.14-133.92-135.72-46.78-58.04-64.56-94.35-131.93-173.78-30.22-35.63-47.2-55.65-73.59-79.71-59.68-54.44-119.66-85.93-161.62-104.1-18.32,34.07-36.65,68.14-54.98,102.22,53.56,32.3,131.12,68.06,228.47,78.56,21.66,2.34,42.3,3.21,61.71,3.03,5.21.82,13.68,2.25,24,4.49,0,0,63.34,13.73,129.77,50.85,52.77,29.48,155.41,114.96,258.18,254.16h-146.09Z"/>
  <path class="cls-2" d="M650.68,355.31c-102.99,205.97-205.97,411.95-308.96,617.92h-205.97c131.14-262.28,280.69-561.39,411.95-823.89l102.98,205.97Z"/>
  <path class="cls-2" d="M856.65,767.25c-34.33,68.66-68.66,137.32-102.98,205.97h-205.97c68.65-137.32,137.31-274.63,205.97-411.94l102.98,205.97Z"/>
  <path class="cls-1" d="M959.64,973.23h-146.09c-4.65-50.62-18.69-88.95-30-113.53-46.54-101.08-140.73-173.17-235.84-195.96-.08-.02-.17-.04-.24-.06,47.09,5.5,134.34,22.19,223.98,81.76,117.52,78.1,169.43,183.59,188.2,227.78h0Z"/>
  <path class="cls-1" d="M547.45,663.67c-32.55,3.59-82.57,5.13-140.85-9.32-70.81-17.56-121.14-50.62-149.09-72.2,18.32-34.07,36.65-68.14,54.98-102.22,14.38,29.97,49.68,92.73,122.24,138.79,43.14,27.38,84.42,39.33,112.72,44.95h0Z"/>
</svg>
